<svg version="1.1" viewBox="0.0 0.0 960.0 540.0" fill="none" stroke="none" stroke-linecap="square" stroke-miterlimit="10" xmlns:xlink="http://www.w3.org/1999/xlink" xmlns="http://www.w3.org/2000/svg"><clipPath id="g24c039949cc_3_248.0"><path d="m0 0l960.0 0l0 540.0l-960.0 0l0 -540.0z" clip-rule="nonzero"/></clipPath><g clip-path="url(#g24c039949cc_3_248.0)"><path fill="#ffffff" d="m0 0l960.0 0l0 540.0l-960.0 0z" fill-rule="evenodd"/><path fill="#000000" fill-opacity="0.0" d="m286.96576 392.67065l0 0c0 -5.053955 4.0970154 -9.15097 9.15094 -9.15097l61.32013 0c2.427002 0 4.7545776 0.9641113 6.470703 2.6802673c1.716156 1.7161255 2.6802673 4.043701 2.6802673 6.470703l0 87.36737c0 5.0539246 -4.0970154 9.15094 -9.15097 9.15094l-61.32013 0c-5.0539246 0 -9.15094 -4.0970154 -9.15094 -9.15094z" fill-rule="evenodd"/><path stroke="#e06666" stroke-width="1.0" stroke-linejoin="round" stroke-linecap="butt" stroke-dasharray="4.0,3.0" d="m286.96576 392.67065l0 0c0 -5.053955 4.0970154 -9.15097 9.15094 -9.15097l61.32013 0c2.427002 0 4.7545776 0.9641113 6.470703 2.6802673c1.716156 1.7161255 2.6802673 4.043701 2.6802673 6.470703l0 87.36737c0 5.0539246 -4.0970154 9.15094 -9.15097 9.15094l-61.32013 0c-5.0539246 0 -9.15094 -4.0970154 -9.15094 -9.15094z" fill-rule="evenodd"/><path fill="#000000" fill-opacity="0.0" d="m199.20197 392.67065l0 0c0 -5.053955 4.0970154 -9.15097 9.150955 -9.15097l61.320114 0c2.427002 0 4.7545776 0.9641113 6.470703 2.6802673c1.716156 1.7161255 2.6802673 4.043701 2.6802673 6.470703l0 87.36737c0 5.0539246 -4.0970154 9.15094 -9.15097 9.15094l-61.320114 0c-5.05394 0 -9.150955 -4.0970154 -9.150955 -9.15094z" fill-rule="evenodd"/><path stroke="#8e7cc3" stroke-width="1.0" stroke-linejoin="round" stroke-linecap="butt" stroke-dasharray="4.0,3.0" d="m199.20197 392.67065l0 0c0 -5.053955 4.0970154 -9.15097 9.150955 -9.15097l61.320114 0c2.427002 0 4.7545776 0.9641113 6.470703 2.6802673c1.716156 1.7161255 2.6802673 4.043701 2.6802673 6.470703l0 87.36737c0 5.0539246 -4.0970154 9.15094 -9.15097 9.15094l-61.320114 0c-5.05394 0 -9.150955 -4.0970154 -9.150955 -9.15094z" fill-rule="evenodd"/><path fill="#000000" fill-opacity="0.0" d="m236.33733 397.6727l48.692917 0l0 28.440948l-48.692917 0z" fill-rule="evenodd"/><path fill="#4a86e8" d="m263.07993 412.93445l0 0.90625l-5.03125 0q-0.015625 -0.34375 0.109375 -0.65625q0.1875 -0.515625 0.609375 -1.015625q0.421875 -0.5 1.234375 -1.140625q1.234375 -1.03125 1.671875 -1.625q0.4375 -0.59375 0.4375 -1.125q0 -0.5625 -0.40625 -0.9375q-0.390625 -0.390625 -1.03125 -0.390625q-0.671875 0 -1.078125 0.40625q-0.40625 0.40625 -0.40625 1.125l-0.96875 -0.09375q0.09375 -1.078125 0.734375 -1.640625q0.65625 -0.5625 1.734375 -0.5625q1.109375 0 1.75 0.609375q0.640625 0.609375 0.640625 1.5q0 0.46875 -0.1875 0.90625q-0.1875 0.4375 -0.625 0.9375q-0.4375 0.484375 -1.453125 1.328125q-0.828125 0.71875 -1.078125 0.96875q-0.234375 0.25 -0.390625 0.5l3.734375 0z" fill-rule="nonzero"/><path fill="#000000" fill-opacity="0.0" d="m220.33675 377.5553l79.622055 0l0 28.440948l-79.622055 0z" fill-rule="evenodd"/><path fill="#4a86e8" d="m251.61217 393.7233l0 -7.625l3.375 0q1.0156097 0 1.5468597 0.203125q0.53125 0.203125 0.84375 0.734375q0.328125 0.515625 0.328125 1.140625q0 0.8125 -0.53125 1.375q-0.515625 0.546875 -1.6249847 0.703125q0.40625 0.1875 0.60935974 0.375q0.453125 0.40625 0.84375 1.015625l1.328125 2.078125l-1.265625 0l-1.015625 -1.59375q-0.43748474 -0.6875 -0.73435974 -1.046875q-0.28125 -0.359375 -0.515625 -0.5q-0.21875 -0.15625 -0.453125 -0.203125q-0.171875 -0.046875 -0.5625 -0.046875l-1.171875 0l0 3.390625l-1.0 0zm1.0 -4.265625l2.171875 0q0.6875 0 1.078125 -0.140625q0.39060974 -0.140625 0.59373474 -0.453125q0.203125 -0.3125 0.203125 -0.6875q0 -0.546875 -0.390625 -0.890625q-0.39060974 -0.34375 -1.2343597 -0.34375l-2.421875 0l0 2.515625z" fill-rule="nonzero"/><path fill="#4a86e8" d="m261.33902 396.37955l0.609375 0.078125q-0.09375 0.625 -0.515625 0.984375q-0.40625 0.359375 -1.015625 0.359375q-0.75 0 -1.21875 -0.484375q-0.453125 -0.5 -0.453125 -1.421875q0 -0.59375 0.1875 -1.046875q0.203125 -0.453125 0.609375 -0.671875q0.40625 -0.21875 0.875 -0.21875q0.609375 0 0.984375 0.3125q0.390625 0.296875 0.5 0.84375l-0.609375 0.09375q-0.09375 -0.359375 -0.3125 -0.546875q-0.21875 -0.1875 -0.53125 -0.1875q-0.46875 0 -0.765625 0.34375q-0.296875 0.328125 -0.296875 1.0625q0 0.734375 0.28125 1.078125q0.28125 0.328125 0.75 0.328125q0.359375 0 0.609375 -0.21875q0.25 -0.21875 0.3125 -0.6875zm3.5390015 1.34375l0 -0.46875q-0.34375 0.546875 -1.03125 0.546875q-0.4375 0 -0.8125 -0.234375q-0.359375 -0.25 -0.5625 -0.6875q-0.203125 -0.4375 -0.203125 -1.0q0 -0.546875 0.171875 -1.0q0.1875 -0.453125 0.546875 -0.6875q0.375 -0.234375 0.828125 -0.234375q0.34375 0 0.59375 0.140625q0.265625 0.140625 0.421875 0.359375l0 -1.828125l0.625 0l0 5.09375l-0.578125 0zm-1.96875 -1.84375q0 0.71875 0.296875 1.0625q0.296875 0.34375 0.703125 0.34375q0.40625 0 0.6875 -0.328125q0.296875 -0.328125 0.296875 -1.015625q0 -0.765625 -0.296875 -1.109375q-0.296875 -0.359375 -0.71875 -0.359375q-0.421875 0 -0.703125 0.34375q-0.265625 0.328125 -0.265625 1.0625zm3.688202 1.84375l0 -0.71875l0.71875 0l0 0.71875q0 0.390625 -0.140625 0.625q-0.140625 0.25 -0.4375 0.375l-0.171875 -0.265625q0.1875 -0.078125 0.28125 -0.25q0.09375 -0.171875 0.109375 -0.484375l-0.359375 0zm1.8189392 -4.375l0 -0.71875l0.625 0l0 0.71875l-0.625 0zm0 4.375l0 -3.6875l0.625 0l0 3.6875l-0.625 0z" fill-rule="nonzero"/><path fill="#000000" fill-opacity="0.0" d="m249.32808 403.3622l23.527573 0" fill-rule="evenodd"/><path stroke="#4a86e8" stroke-width="1.0" stroke-linejoin="round" stroke-linecap="butt" d="m249.32808 403.3622l23.527573 0" fill-rule="evenodd"/><path fill="#000000" fill-opacity="0.0" d="m111.20194 392.67065l0 0c0 -5.053955 4.097023 -9.15097 9.150963 -9.15097l61.320114 0c2.4269867 0 4.7545776 0.9641113 6.4707184 2.6802673c1.7161407 1.7161255 2.680252 4.043701 2.680252 6.470703l0 87.36737c0 5.0539246 -4.0970306 9.15094 -9.15097 9.15094l-61.320114 0c-5.05394 0 -9.150963 -4.0970154 -9.150963 -9.15094z" fill-rule="evenodd"/><path stroke="#999999" stroke-width="1.0" stroke-linejoin="round" stroke-linecap="butt" stroke-dasharray="4.0,3.0" d="m111.20194 392.67065l0 0c0 -5.053955 4.097023 -9.15097 9.150963 -9.15097l61.320114 0c2.4269867 0 4.7545776 0.9641113 6.4707184 2.6802673c1.7161407 1.7161255 2.680252 4.043701 2.680252 6.470703l0 87.36737c0 5.0539246 -4.0970306 9.15094 -9.15097 9.15094l-61.320114 0c-5.05394 0 -9.150963 -4.0970154 -9.150963 -9.15094z" fill-rule="evenodd"/><path fill="#000000" fill-opacity="0.0" d="m26.501312 423.0l395.3386 0" fill-rule="evenodd"/><path stroke="#000000" stroke-width="1.0" stroke-linejoin="round" stroke-linecap="butt" d="m26.501312 423.0l395.3386 0" fill-rule="evenodd"/><path fill="#000000" fill-opacity="0.0" d="m420.89502 422.5748l20.850372 -46.834656" fill-rule="evenodd"/><path stroke="#000000" stroke-width="1.0" stroke-linejoin="round" stroke-linecap="butt" d="m420.89502 422.5748l20.850372 -46.834656" fill-rule="evenodd"/><path fill="#000000" fill-opacity="0.0" d="m25.750656 411.75067l0 20.251953" fill-rule="evenodd"/><path stroke="#000000" stroke-width="1.0" stroke-linejoin="round" stroke-linecap="butt" d="m25.750656 411.75067l0 20.251953" fill-rule="evenodd"/><path fill="#000000" fill-opacity="0.0" d="m21.125984 415.68765l4.755905 -3.685028" fill-rule="evenodd"/><path stroke="#000000" stroke-width="1.0" stroke-linejoin="round" stroke-linecap="butt" d="m21.125984 415.68765l4.755905 -3.685028" fill-rule="evenodd"/><path fill="#000000" fill-opacity="0.0" d="m21.125984 423.68765l4.755905 -3.685028" fill-rule="evenodd"/><path stroke="#000000" stroke-width="1.0" stroke-linejoin="round" stroke-linecap="butt" d="m21.125984 423.68765l4.755905 -3.685028" fill-rule="evenodd"/><path fill="#000000" fill-opacity="0.0" d="m21.125984 431.68765l4.755905 -3.685028" fill-rule="evenodd"/><path stroke="#000000" stroke-width="1.0" stroke-linejoin="round" stroke-linecap="butt" d="m21.125984 431.68765l4.755905 -3.685028" fill-rule="evenodd"/><path fill="#ffffff" d="m37.501312 423.37534l0 0c0 -5.5924377 4.533558 -10.126007 10.125984 -10.126007l0 0c2.6855774 0 5.261162 1.066864 7.1601524 2.9658508c1.8989906 1.8989868 2.9658318 4.474579 2.9658318 7.1601562l0 0c0 5.592407 -4.533558 10.125977 -10.125984 10.125977l0 0c-5.5924263 0 -10.125984 -4.5335693 -10.125984 -10.125977z" fill-rule="evenodd"/><path stroke="#000000" stroke-width="1.0" stroke-linejoin="round" stroke-linecap="butt" d="m37.501312 423.37534l0 0c0 -5.5924377 4.533558 -10.126007 10.125984 -10.126007l0 0c2.6855774 0 5.261162 1.066864 7.1601524 2.9658508c1.8989906 1.8989868 2.9658318 4.474579 2.9658318 7.1601562l0 0c0 5.592407 -4.533558 10.125977 -10.125984 10.125977l0 0c-5.5924263 0 -10.125984 -4.5335693 -10.125984 -10.125977z" fill-rule="evenodd"/><path fill="#000000" fill-opacity="0.0" d="m26.997375 375.76642l41.259842 0l0 35.55905l-41.259842 0z" fill-rule="evenodd"/><path fill="#000000" d="m39.4505 397.5664l0 -8.421875l-3.140625 0l0 -1.125l7.5625 0l0 1.125l-3.15625 0l0 8.421875l-1.265625 0z" fill-rule="nonzero"/><path fill="#000000" d="m47.873108 401.08203l0.8125 0.109375q-0.203125 0.703125 -0.71875 1.09375q-0.515625 0.390625 -1.3125 0.390625q-1.0 0 -1.59375 -0.625q-0.59375 -0.625 -0.59375 -1.75q0 -1.15625 0.59375 -1.796875q0.59375 -0.640625 1.546875 -0.640625q0.921875 0 1.5 0.625q0.59375 0.625 0.59375 1.765625q0 0.078125 0 0.203125l-3.4375 0q0.046875 0.765625 0.4375 1.171875q0.390625 0.40625 0.953125 0.40625q0.4375 0 0.734375 -0.21875q0.3125 -0.234375 0.484375 -0.734375zm-2.5625 -1.265625l2.578125 0q-0.0625 -0.578125 -0.296875 -0.859375q-0.375 -0.453125 -0.96875 -0.453125q-0.53125 0 -0.90625 0.359375q-0.359375 0.359375 -0.40625 0.953125zm3.8264008 2.75l1.6875 -2.390625l-1.5625 -2.21875l0.984375 0l0.703125 1.09375q0.203125 0.296875 0.3125 0.515625q0.203125 -0.296875 0.359375 -0.515625l0.765625 -1.09375l0.9375 0l-1.59375 2.171875l1.71875 2.4375l-0.953125 0l-0.953125 -1.4375l-0.25 -0.375l-1.203125 1.8125l-0.953125 0zm6.6561737 -0.703125l0.125 0.6875q-0.328125 0.078125 -0.59375 0.078125q-0.421875 0 -0.65625 -0.125q-0.234375 -0.140625 -0.328125 -0.359375q-0.09375 -0.21875 -0.09375 -0.921875l0 -2.65625l-0.578125 0l0 -0.609375l0.578125 0l0 -1.125l0.765625 -0.46875l0 1.59375l0.78125 0l0 0.609375l-0.78125 0l0 2.703125q0 0.328125 0.046875 0.421875q0.046875 0.09375 0.125 0.15625q0.09375 0.046875 0.28125 0.046875q0.125 0 0.328125 -0.03125z" fill-rule="nonzero"/><path fill="#ffffff" d="m70.750656 417.0l20.251968 0l0 11.24408l-20.251968 0z" fill-rule="evenodd"/><path stroke="#6aa84f" stroke-width="1.0" stroke-linejoin="round" stroke-linecap="butt" d="m70.750656 417.0l20.251968 0l0 11.24408l-20.251968 0z" fill-rule="evenodd"/><path fill="#000000" fill-opacity="0.0" d="m45.74414 381.38303l66.519684 0l0 42.015747l-66.519684 0z" fill-rule="evenodd"/><path fill="#6aa84f" d="m71.275024 395.99927l1.265625 0.3125q-0.390625 1.5625 -1.421875 2.375q-1.03125 0.8125 -2.53125 0.8125q-1.53125 0 -2.5 -0.625q-0.96875 -0.625 -1.484375 -1.8125q-0.5 -1.1875 -0.5 -2.5625q0 -1.484375 0.5625 -2.59375q0.578125 -1.109375 1.625 -1.6875q1.0625 -0.578125 2.328125 -0.578125q1.421875 0 2.390625 0.734375q0.984375 0.71875 1.375 2.046875l-1.25 0.296875q-0.328125 -1.046875 -0.96875 -1.515625q-0.625 -0.484375 -1.578125 -0.484375q-1.09375 0 -1.84375 0.53125q-0.734375 0.53125 -1.03125 1.421875q-0.296875 0.875 -0.296875 1.828125q0 1.21875 0.34375 2.125q0.359375 0.90625 1.109375 1.359375q0.75 0.4375 1.625 0.4375q1.0625 0 1.796875 -0.609375q0.734375 -0.609375 0.984375 -1.8125zm2.2345276 -0.109375q0 -1.921875 1.078125 -2.84375q0.890625 -0.765625 2.171875 -0.765625q1.421875 0 2.328125 0.9375q0.90625 0.921875 0.90625 2.578125q0 1.328125 -0.40625 2.09375q-0.390625 0.765625 -1.15625 1.1875q-0.765625 0.421875 -1.671875 0.421875q-1.453125 0 -2.359375 -0.921875q-0.890625 -0.9375 -0.890625 -2.6875zm1.203125 0q0 1.328125 0.578125 1.984375q0.59375 0.65625 1.46875 0.65625q0.875 0 1.453125 -0.65625q0.578125 -0.671875 0.578125 -2.03125q0 -1.28125 -0.59375 -1.9375q-0.578125 -0.65625 -1.4375 -0.65625q-0.875 0 -1.46875 0.65625q-0.578125 0.65625 -0.578125 1.984375zm6.6468506 3.453125l0 -6.90625l1.0625 0l0 0.984375q0.75 -1.140625 2.1875 -1.140625q0.625 0 1.15625 0.21875q0.53125 0.21875 0.78125 0.59375q0.265625 0.359375 0.375 0.859375q0.0625 0.328125 0.0625 1.140625l0 4.25l-1.171875 0l0 -4.203125q0 -0.71875 -0.140625 -1.0625q-0.140625 -0.359375 -0.484375 -0.5625q-0.34375 -0.21875 -0.8125 -0.21875q-0.75 0 -1.296875 0.46875q-0.546875 0.46875 -0.546875 1.796875l0 3.78125l-1.171875 0zm9.334351 0l-2.625 -6.90625l1.234375 0l1.484375 4.140625q0.234375 0.65625 0.4375 1.390625q0.15625 -0.546875 0.4375 -1.3125l1.53125 -4.21875l1.21875 0l-2.625 6.90625l-1.09375 0z" fill-rule="nonzero"/><path fill="#6aa84f" d="m75.723595 408.32428l1.203125 0.140625q-0.28125 1.0625 -1.0625 1.65625q-0.765625 0.578125 -1.96875 0.578125q-1.515625 0 -2.40625 -0.9375q-0.890625 -0.9375 -0.890625 -2.609375q0 -1.75 0.890625 -2.703125q0.90625 -0.96875 2.34375 -0.96875q1.390625 0 2.265625 0.9375q0.875 0.9375 0.875 2.65625q0 0.109375 0 0.3125l-5.15625 0q0.0625 1.140625 0.640625 1.75q0.578125 0.59375 1.4375 0.59375q0.65625 0 1.109375 -0.328125q0.453125 -0.34375 0.71875 -1.078125zm-3.84375 -1.90625l3.859375 0q-0.078125 -0.859375 -0.4375 -1.296875q-0.5625 -0.6875 -1.453125 -0.6875q-0.8125 0 -1.359375 0.546875q-0.546875 0.53125 -0.609375 1.4375zm5.7406006 4.125l2.53125 -3.59375l-2.34375 -3.3125l1.46875 0l1.0625 1.609375q0.296875 0.46875 0.484375 0.78125q0.28125 -0.4375 0.515625 -0.765625l1.171875 -1.625l1.40625 0l-2.390625 3.25l2.5625 3.65625l-1.4375 0l-1.421875 -2.140625l-0.375 -0.59375l-1.8125 2.734375l-1.421875 0zm10.0078125 -1.046875l0.171875 1.03125q-0.5 0.109375 -0.890625 0.109375q-0.640625 0 -1.0 -0.203125q-0.34375 -0.203125 -0.484375 -0.53125q-0.140625 -0.328125 -0.140625 -1.390625l0 -3.96875l-0.859375 0l0 -0.90625l0.859375 0l0 -1.71875l1.171875 -0.703125l0 2.421875l1.171875 0l0 0.90625l-1.171875 0l0 4.046875q0 0.5 0.046875 0.640625q0.0625 0.140625 0.203125 0.234375q0.140625 0.078125 0.40625 0.078125q0.203125 0 0.515625 -0.046875z" fill-rule="nonzero"/><path fill="#000000" fill-opacity="0.0" d="m97.75 478.25067l0 -55.24411" fill-rule="evenodd"/><path stroke="#ffab40" stroke-width="1.0" stroke-linejoin="round" stroke-linecap="butt" d="m97.75 478.25067l0 -55.24411" fill-rule="evenodd"/><path fill="#000000" fill-opacity="0.0" d="m87.62795 478.6299l20.251968 0" fill-rule="evenodd"/><path stroke="#ffab40" stroke-width="1.0" stroke-linejoin="round" stroke-linecap="butt" d="m87.62795 478.6299l20.251968 0" fill-rule="evenodd"/><path fill="#000000" fill-opacity="0.0" d="m91.564964 483.2546l-3.6850433 -4.7559204" fill-rule="evenodd"/><path stroke="#ffab40" stroke-width="1.0" stroke-linejoin="round" stroke-linecap="butt" d="m91.564964 483.2546l-3.6850433 -4.7559204" fill-rule="evenodd"/><path fill="#000000" fill-opacity="0.0" d="m99.564964 483.2546l-3.6850433 -4.7559204" fill-rule="evenodd"/><path stroke="#ffab40" stroke-width="1.0" stroke-linejoin="round" stroke-linecap="butt" d="m99.564964 483.2546l-3.6850433 -4.7559204" fill-rule="evenodd"/><path fill="#000000" fill-opacity="0.0" d="m107.564964 483.2546l-3.6850433 -4.7559204" fill-rule="evenodd"/><path stroke="#ffab40" stroke-width="1.0" stroke-linejoin="round" stroke-linecap="butt" d="m107.564964 483.2546l-3.6850433 -4.7559204" fill-rule="evenodd"/><path fill="#ffffff" d="m87.00131 458.37534l0 0c0 -5.5924377 4.533554 -10.126007 10.125984 -10.126007l0 0c2.6855774 0 5.261162 1.066864 7.1601486 2.9658508c1.8989944 1.8989868 2.9658356 4.474579 2.9658356 7.1601562l0 0c0 5.592407 -4.533554 10.125977 -10.125984 10.125977l0 0c-5.59243 0 -10.125984 -4.5335693 -10.125984 -10.125977z" fill-rule="evenodd"/><path stroke="#ffab40" stroke-width="1.0" stroke-linejoin="round" stroke-linecap="butt" d="m87.00131 458.37534l0 0c0 -5.5924377 4.533554 -10.126007 10.125984 -10.126007l0 0c2.6855774 0 5.261162 1.066864 7.1601486 2.9658508c1.8989944 1.8989868 2.9658356 4.474579 2.9658356 7.1601562l0 0c0 5.592407 -4.533554 10.125977 -10.125984 10.125977l0 0c-5.59243 0 -10.125984 -4.5335693 -10.125984 -10.125977z" fill-rule="evenodd"/><path fill="#000000" fill-opacity="0.0" d="m97.1273 468.5013l0 -20.251984" fill-rule="evenodd"/><path stroke="#ffab40" stroke-width="1.0" stroke-linejoin="round" stroke-linecap="butt" d="m97.1273 468.5013l0 -14.251984" fill-rule="evenodd"/><path fill="#ffab40" stroke="#ffab40" stroke-width="1.0" stroke-linecap="butt" d="m98.77903 454.24933l-1.6517334 -4.538086l-1.6517334 4.538086z" fill-rule="evenodd"/><path fill="#000000" fill-opacity="0.0" d="m61.564304 442.88452l41.259846 0l0 35.55905l-41.259846 0z" fill-rule="evenodd"/><path fill="#ffab40" d="m75.25181 454.85638l1.265625 0l0 1.171875q2.0 0.125 3.0625 1.171875q1.0625 1.046875 1.0625 2.609375q0 1.75 -1.15625 2.765625q-1.140625 1.0 -2.96875 1.0625l0 1.390625l-1.265625 0l0 -1.390625q-1.875 -0.078125 -3.015625 -1.109375q-1.125 -1.046875 -1.125 -2.65625q0 -1.0625 0.484375 -1.921875q0.5 -0.859375 1.390625 -1.34375q0.890625 -0.5 2.265625 -0.578125l0 -1.171875zm0 2.265625q-1.34375 0.046875 -2.078125 0.75q-0.734375 0.6875 -0.734375 1.984375q0 1.328125 0.796875 2.015625q0.8125 0.671875 2.015625 0.6875l0 -5.4375zm1.265625 5.4375q1.328125 -0.03125 2.078125 -0.734375q0.765625 -0.71875 0.765625 -1.984375q0 -1.203125 -0.734375 -1.953125q-0.71875 -0.765625 -2.109375 -0.765625l0 5.4375z" fill-rule="nonzero"/><path fill="#ffab40" d="m81.4638 468.3095l0.78125 -0.125q0.0625 0.46875 0.359375 0.71875q0.296875 0.25 0.828125 0.25q0.546875 0 0.796875 -0.21875q0.265625 -0.21875 0.265625 -0.515625q0 -0.265625 -0.234375 -0.421875q-0.15625 -0.109375 -0.796875 -0.265625q-0.859375 -0.21875 -1.1875 -0.375q-0.328125 -0.15625 -0.5 -0.4375q-0.171875 -0.28125 -0.171875 -0.609375q0 -0.3125 0.140625 -0.578125q0.140625 -0.265625 0.375 -0.4375q0.1875 -0.125 0.5 -0.21875q0.3125 -0.09375 0.671875 -0.09375q0.546875 0 0.953125 0.15625q0.40625 0.15625 0.59375 0.421875q0.203125 0.265625 0.28125 0.703125l-0.765625 0.109375q-0.046875 -0.359375 -0.296875 -0.546875q-0.25 -0.203125 -0.703125 -0.203125q-0.546875 0 -0.78125 0.1875q-0.21875 0.171875 -0.21875 0.40625q0 0.15625 0.09375 0.265625q0.09375 0.125 0.296875 0.21875q0.125 0.03125 0.6875 0.1875q0.828125 0.234375 1.15625 0.375q0.328125 0.140625 0.515625 0.40625q0.1875 0.265625 0.1875 0.65625q0 0.390625 -0.234375 0.75q-0.21875 0.34375 -0.65625 0.53125q-0.421875 0.1875 -0.96875 0.1875q-0.890625 0 -1.359375 -0.375q-0.46875 -0.375 -0.609375 -1.109375z" fill-rule="nonzero"/><path fill="#ffffff" d="m119.67371 417.13483l20.25196 0l0 11.24411l-20.25196 0z" fill-rule="evenodd"/><path stroke="#4a86e8" stroke-width="1.0" stroke-linejoin="round" stroke-linecap="butt" d="m119.67371 417.13483l20.25196 0l0 11.24411l-20.25196 0z" fill-rule="evenodd"/><path fill="#ffffff" d="m163.00954 417.13483l20.251968 0l0 11.24411l-20.251968 0z" fill-rule="evenodd"/><path stroke="#4a86e8" stroke-width="1.0" stroke-linejoin="round" stroke-linecap="butt" d="m163.00954 417.13483l20.251968 0l0 11.24411l-20.251968 0z" fill-rule="evenodd"/><path fill="#ffffff" d="m206.36774 417.13483l20.251968 0l0 11.24411l-20.251968 0z" fill-rule="evenodd"/><path stroke="#4a86e8" stroke-width="1.0" stroke-linejoin="round" stroke-linecap="butt" d="m206.36774 417.13483l20.251968 0l0 11.24411l-20.251968 0z" fill-rule="evenodd"/><path fill="#ffffff" d="m250.82297 417.13483l20.251953 0l0 11.24411l-20.251953 0z" fill-rule="evenodd"/><path stroke="#4a86e8" stroke-width="1.0" stroke-linejoin="round" stroke-linecap="butt" d="m250.82297 417.13483l20.251953 0l0 11.24411l-20.251953 0z" fill-rule="evenodd"/><path fill="#ffffff" d="m293.80804 417.13483l20.251953 0l0 11.24411l-20.251953 0z" fill-rule="evenodd"/><path stroke="#4a86e8" stroke-width="1.0" stroke-linejoin="round" stroke-linecap="butt" d="m293.80804 417.13483l20.251953 0l0 11.24411l-20.251953 0z" fill-rule="evenodd"/><path fill="#ffffff" d="m339.00952 417.13483l20.251984 0l0 11.24411l-20.251984 0z" fill-rule="evenodd"/><path stroke="#4a86e8" stroke-width="1.0" stroke-linejoin="round" stroke-linecap="butt" d="m339.00952 417.13483l20.251984 0l0 11.24411l-20.251984 0z" fill-rule="evenodd"/><path fill="#ffffff" d="m388.50348 417.0l20.251953 0l0 11.24408l-20.251953 0z" fill-rule="evenodd"/><path stroke="#6aa84f" stroke-width="1.0" stroke-linejoin="round" stroke-linecap="butt" d="m388.50348 417.0l20.251953 0l0 11.24408l-20.251953 0z" fill-rule="evenodd"/><path fill="#000000" fill-opacity="0.0" d="m363.49695 381.38303l66.519684 0l0 42.015747l-66.519684 0z" fill-rule="evenodd"/><path fill="#6aa84f" d="m389.02783 395.99927l1.265625 0.3125q-0.390625 1.5625 -1.421875 2.375q-1.03125 0.8125 -2.53125 0.8125q-1.53125 0 -2.5 -0.625q-0.96875 -0.625 -1.484375 -1.8125q-0.5 -1.1875 -0.5 -2.5625q0 -1.484375 0.5625 -2.59375q0.578125 -1.109375 1.625 -1.6875q1.0625 -0.578125 2.328125 -0.578125q1.421875 0 2.390625 0.734375q0.984375 0.71875 1.375 2.046875l-1.25 0.296875q-0.328125 -1.046875 -0.96875 -1.515625q-0.625 -0.484375 -1.578125 -0.484375q-1.09375 0 -1.84375 0.53125q-0.734375 0.53125 -1.03125 1.421875q-0.296875 0.875 -0.296875 1.828125q0 1.21875 0.34375 2.125q0.359375 0.90625 1.109375 1.359375q0.75 0.4375 1.625 0.4375q1.0625 0 1.796875 -0.609375q0.734375 -0.609375 0.984375 -1.8125zm2.2345276 -0.109375q0 -1.921875 1.078125 -2.84375q0.890625 -0.765625 2.171875 -0.765625q1.421875 0 2.328125 0.9375q0.90625 0.921875 0.90625 2.578125q0 1.328125 -0.40625 2.09375q-0.390625 0.765625 -1.15625 1.1875q-0.765625 0.421875 -1.671875 0.421875q-1.453125 0 -2.359375 -0.921875q-0.890625 -0.9375 -0.890625 -2.6875zm1.203125 0q0 1.328125 0.578125 1.984375q0.59375 0.65625 1.46875 0.65625q0.875 0 1.453125 -0.65625q0.578125 -0.671875 0.578125 -2.03125q0 -1.28125 -0.59375 -1.9375q-0.578125 -0.65625 -1.4375 -0.65625q-0.875 0 -1.46875 0.65625q-0.578125 0.65625 -0.578125 1.984375zm6.6468506 3.453125l0 -6.90625l1.0625 0l0 0.984375q0.75 -1.140625 2.1875 -1.140625q0.625 0 1.15625 0.21875q0.53125 0.21875 0.78125 0.59375q0.265625 0.359375 0.375 0.859375q0.0625 0.328125 0.0625 1.140625l0 4.25l-1.171875 0l0 -4.203125q0 -0.71875 -0.140625 -1.0625q-0.140625 -0.359375 -0.484375 -0.5625q-0.34375 -0.21875 -0.8125 -0.21875q-0.75 0 -1.296875 0.46875q-0.546875 0.46875 -0.546875 1.796875l0 3.78125l-1.171875 0zm9.334351 0l-2.625 -6.90625l1.234375 0l1.484375 4.140625q0.234375 0.65625 0.4375 1.390625q0.15625 -0.546875 0.4375 -1.3125l1.53125 -4.21875l1.21875 0l-2.625 6.90625l-1.09375 0z" fill-rule="nonzero"/><path fill="#6aa84f" d="m390.60913 402.35553l0 -1.359375l1.171875 0l0 1.359375l-1.171875 0zm0 8.1875l0 -6.90625l1.171875 0l0 6.90625l-1.171875 0zm2.945465 0l0 -6.90625l1.0625 0l0 0.984375q0.75 -1.140625 2.1875 -1.140625q0.625 0 1.15625 0.21875q0.53125 0.21875 0.78125 0.59375q0.265625 0.359375 0.375 0.859375q0.0625 0.328125 0.0625 1.140625l0 4.25l-1.171875 0l0 -4.203125q0 -0.71875 -0.140625 -1.0625q-0.140625 -0.359375 -0.484375 -0.5625q-0.34375 -0.21875 -0.8125 -0.21875q-0.75 0 -1.296875 0.46875q-0.546875 0.46875 -0.546875 1.796875l0 3.78125l-1.171875 0zm9.974976 -1.046875l0.171875 1.03125q-0.5 0.109375 -0.890625 0.109375q-0.640625 0 -1.0 -0.203125q-0.34375 -0.203125 -0.484375 -0.53125q-0.140625 -0.328125 -0.140625 -1.390625l0 -3.96875l-0.859375 0l0 -0.90625l0.859375 0l0 -1.71875l1.171875 -0.703125l0 2.421875l1.171875 0l0 0.90625l-1.171875 0l0 4.046875q0 0.5 0.046875 0.640625q0.0625 0.140625 0.203125 0.234375q0.140625 0.078125 0.40625 0.078125q0.203125 0 0.515625 -0.046875z" fill-rule="nonzero"/><path fill="#000000" fill-opacity="0.0" d="m150.57063 454.49344l0 -31.496063" fill-rule="evenodd"/><path stroke="#000000" stroke-width="1.0" stroke-linejoin="round" stroke-linecap="butt" d="m150.57063 454.49344l0 -31.496063" fill-rule="evenodd"/><path fill="#000000" fill-opacity="0.0" d="m140.44792 478.6299l20.251968 0" fill-rule="evenodd"/><path stroke="#000000" stroke-width="1.0" stroke-linejoin="round" stroke-linecap="butt" d="m140.44792 478.6299l20.251968 0" fill-rule="evenodd"/><path fill="#000000" fill-opacity="0.0" d="m144.38493 483.2546l-3.6850433 -4.7559204" fill-rule="evenodd"/><path stroke="#000000" stroke-width="1.0" stroke-linejoin="round" stroke-linecap="butt" d="m144.38493 483.2546l-3.6850433 -4.7559204" fill-rule="evenodd"/><path fill="#000000" fill-opacity="0.0" d="m152.38493 483.2546l-3.6850433 -4.7559204" fill-rule="evenodd"/><path stroke="#000000" stroke-width="1.0" stroke-linejoin="round" stroke-linecap="butt" d="m152.38493 483.2546l-3.6850433 -4.7559204" fill-rule="evenodd"/><path fill="#000000" fill-opacity="0.0" d="m160.38493 483.2546l-3.6850433 -4.7559204" fill-rule="evenodd"/><path stroke="#000000" stroke-width="1.0" stroke-linejoin="round" stroke-linecap="butt" d="m160.38493 483.2546l-3.6850433 -4.7559204" fill-rule="evenodd"/><path fill="#000000" fill-opacity="0.0" d="m140.44792 462.6299l20.251968 0" fill-rule="evenodd"/><path stroke="#000000" stroke-width="1.0" stroke-linejoin="round" stroke-linecap="butt" d="m140.44792 462.6299l20.251968 0" fill-rule="evenodd"/><path fill="#000000" fill-opacity="0.0" d="m140.44792 454.6299l20.251968 0" fill-rule="evenodd"/><path stroke="#000000" stroke-width="1.0" stroke-linejoin="round" stroke-linecap="butt" d="m140.44792 454.6299l20.251968 0" fill-rule="evenodd"/><path fill="#000000" fill-opacity="0.0" d="m150.57063 478.02625l0 -15.118103" fill-rule="evenodd"/><path stroke="#000000" stroke-width="1.0" stroke-linejoin="round" stroke-linecap="butt" d="m150.57063 478.02625l0 -15.118103" fill-rule="evenodd"/><path fill="#000000" fill-opacity="0.0" d="m238.57063 454.49344l0 -31.496063" fill-rule="evenodd"/><path stroke="#000000" stroke-width="1.0" stroke-linejoin="round" stroke-linecap="butt" d="m238.57063 454.49344l0 -31.496063" fill-rule="evenodd"/><path fill="#000000" fill-opacity="0.0" d="m228.44792 478.6299l20.251968 0" fill-rule="evenodd"/><path stroke="#000000" stroke-width="1.0" stroke-linejoin="round" stroke-linecap="butt" d="m228.44792 478.6299l20.251968 0" fill-rule="evenodd"/><path fill="#000000" fill-opacity="0.0" d="m232.38493 483.2546l-3.6850433 -4.7559204" fill-rule="evenodd"/><path stroke="#000000" stroke-width="1.0" stroke-linejoin="round" stroke-linecap="butt" d="m232.38493 483.2546l-3.6850433 -4.7559204" fill-rule="evenodd"/><path fill="#000000" fill-opacity="0.0" d="m240.38493 483.2546l-3.6850433 -4.7559204" fill-rule="evenodd"/><path stroke="#000000" stroke-width="1.0" stroke-linejoin="round" stroke-linecap="butt" d="m240.38493 483.2546l-3.6850433 -4.7559204" fill-rule="evenodd"/><path fill="#000000" fill-opacity="0.0" d="m248.38493 483.2546l-3.6850433 -4.7559204" fill-rule="evenodd"/><path stroke="#000000" stroke-width="1.0" stroke-linejoin="round" stroke-linecap="butt" d="m248.38493 483.2546l-3.6850433 -4.7559204" fill-rule="evenodd"/><path fill="#000000" fill-opacity="0.0" d="m228.44792 462.6299l20.251968 0" fill-rule="evenodd"/><path stroke="#000000" stroke-width="1.0" stroke-linejoin="round" stroke-linecap="butt" d="m228.44792 462.6299l20.251968 0" fill-rule="evenodd"/><path fill="#000000" fill-opacity="0.0" d="m228.44792 454.6299l20.251968 0" fill-rule="evenodd"/><path stroke="#000000" stroke-width="1.0" stroke-linejoin="round" stroke-linecap="butt" d="m228.44792 454.6299l20.251968 0" fill-rule="evenodd"/><path fill="#000000" fill-opacity="0.0" d="m238.57063 478.02625l0 -15.118103" fill-rule="evenodd"/><path stroke="#000000" stroke-width="1.0" stroke-linejoin="round" stroke-linecap="butt" d="m238.57063 478.02625l0 -15.118103" fill-rule="evenodd"/><path fill="#000000" fill-opacity="0.0" d="m326.21988 454.49344l0 -31.496063" fill-rule="evenodd"/><path stroke="#000000" stroke-width="1.0" stroke-linejoin="round" stroke-linecap="butt" d="m326.21988 454.49344l0 -31.496063" fill-rule="evenodd"/><path fill="#000000" fill-opacity="0.0" d="m316.09717 478.6299l20.251984 0" fill-rule="evenodd"/><path stroke="#000000" stroke-width="1.0" stroke-linejoin="round" stroke-linecap="butt" d="m316.09717 478.6299l20.251984 0" fill-rule="evenodd"/><path fill="#000000" fill-opacity="0.0" d="m320.03418 483.2546l-3.685028 -4.7559204" fill-rule="evenodd"/><path stroke="#000000" stroke-width="1.0" stroke-linejoin="round" stroke-linecap="butt" d="m320.03418 483.2546l-3.685028 -4.7559204" fill-rule="evenodd"/><path fill="#000000" fill-opacity="0.0" d="m328.03418 483.2546l-3.685028 -4.7559204" fill-rule="evenodd"/><path stroke="#000000" stroke-width="1.0" stroke-linejoin="round" stroke-linecap="butt" d="m328.03418 483.2546l-3.685028 -4.7559204" fill-rule="evenodd"/><path fill="#000000" fill-opacity="0.0" d="m336.03418 483.2546l-3.685028 -4.7559204" fill-rule="evenodd"/><path stroke="#000000" stroke-width="1.0" stroke-linejoin="round" stroke-linecap="butt" d="m336.03418 483.2546l-3.685028 -4.7559204" fill-rule="evenodd"/><path fill="#000000" fill-opacity="0.0" d="m316.09717 462.6299l20.251984 0" fill-rule="evenodd"/><path stroke="#000000" stroke-width="1.0" stroke-linejoin="round" stroke-linecap="butt" d="m316.09717 462.6299l20.251984 0" fill-rule="evenodd"/><path fill="#000000" fill-opacity="0.0" d="m316.09717 454.6299l20.251984 0" fill-rule="evenodd"/><path stroke="#000000" stroke-width="1.0" stroke-linejoin="round" stroke-linecap="butt" d="m316.09717 454.6299l20.251984 0" fill-rule="evenodd"/><path fill="#000000" fill-opacity="0.0" d="m326.21988 478.02625l0 -15.118103" fill-rule="evenodd"/><path stroke="#000000" stroke-width="1.0" stroke-linejoin="round" stroke-linecap="butt" d="m326.21988 478.02625l0 -15.118103" fill-rule="evenodd"/><path fill="#000000" fill-opacity="0.0" d="m117.9425 489.18896l79.62205 0l0 30.70868l-79.62205 0z" fill-rule="evenodd"/><path fill="#999999" d="m138.54141 503.80524l1.265625 0.3125q-0.390625 1.5625 -1.421875 2.375q-1.03125 0.8125 -2.53125 0.8125q-1.53125 0 -2.5 -0.625q-0.96875 -0.625 -1.484375 -1.8125q-0.5 -1.1875 -0.5 -2.5625q0 -1.484375 0.5625 -2.59375q0.578125 -1.109375 1.625 -1.6875q1.0625 -0.578125 2.328125 -0.578125q1.421875 0 2.390625 0.734375q0.984375 0.71875 1.375 2.046875l-1.25 0.296875q-0.328125 -1.046875 -0.96875 -1.515625q-0.625 -0.484375 -1.578125 -0.484375q-1.09375 0 -1.84375 0.53125q-0.734375 0.53125 -1.03125 1.421875q-0.296875 0.875 -0.296875 1.828125q0 1.21875 0.34375 2.125q0.359375 0.90625 1.109375 1.359375q0.75 0.4375 1.625 0.4375q1.0625 0 1.796875 -0.609375q0.734375 -0.609375 0.984375 -1.8125zm2.2345276 -0.109375q0 -1.921875 1.078125 -2.84375q0.890625 -0.765625 2.171875 -0.765625q1.421875 0 2.328125 0.9375q0.90625 0.921875 0.90625 2.578125q0 1.328125 -0.40625 2.09375q-0.390625 0.765625 -1.15625 1.1875q-0.765625 0.421875 -1.671875 0.421875q-1.453125 0 -2.359375 -0.921875q-0.890625 -0.9375 -0.890625 -2.6875zm1.203125 0q0 1.328125 0.578125 1.984375q0.59375 0.65625 1.46875 0.65625q0.875 0 1.453125 -0.65625q0.578125 -0.671875 0.578125 -2.03125q0 -1.28125 -0.59375 -1.9375q-0.578125 -0.65625 -1.4375 -0.65625q-0.875 0 -1.46875 0.65625q-0.578125 0.65625 -0.578125 1.984375zm6.6468506 3.453125l0 -6.90625l1.0625 0l0 0.984375q0.75 -1.140625 2.1875 -1.140625q0.625 0 1.15625 0.21875q0.53125 0.21875 0.78125 0.59375q0.265625 0.359375 0.375 0.859375q0.0625 0.328125 0.0625 1.140625l0 4.25l-1.171875 0l0 -4.203125q0 -0.71875 -0.140625 -1.0625q-0.140625 -0.359375 -0.484375 -0.5625q-0.34375 -0.21875 -0.8125 -0.21875q-0.75 0 -1.296875 0.46875q-0.546875 0.46875 -0.546875 1.796875l0 3.78125l-1.171875 0zm11.928101 -2.53125l1.15625 0.15625q-0.1875 1.1875 -0.96875 1.859375q-0.78125 0.671875 -1.921875 0.671875q-1.40625 0 -2.28125 -0.921875q-0.859375 -0.9375 -0.859375 -2.65625q0 -1.125 0.375 -1.96875q0.375 -0.84375 1.125 -1.25q0.765625 -0.421875 1.65625 -0.421875q1.125 0 1.84375 0.578125q0.71875 0.5625 0.921875 1.609375l-1.140625 0.171875q-0.171875 -0.703125 -0.59375 -1.046875q-0.40625 -0.359375 -0.984375 -0.359375q-0.890625 0 -1.453125 0.640625q-0.546875 0.640625 -0.546875 2.0q0 1.40625 0.53125 2.03125q0.546875 0.625 1.40625 0.625q0.6875 0 1.140625 -0.421875q0.46875 -0.421875 0.59375 -1.296875zm2.1328125 2.53125l0 -6.90625l1.0625 0l0 1.046875q0.40625 -0.734375 0.734375 -0.96875q0.34375 -0.234375 0.765625 -0.234375q0.59375 0 1.203125 0.375l-0.40625 1.078125q-0.4375 -0.25 -0.859375 -0.25q-0.390625 0 -0.703125 0.234375q-0.296875 0.234375 -0.421875 0.640625q-0.203125 0.625 -0.203125 1.359375l0 3.625l-1.171875 0zm9.18837 -2.21875l1.203125 0.140625q-0.28125 1.0625 -1.0625 1.65625q-0.765625 0.578125 -1.96875 0.578125q-1.515625 0 -2.40625 -0.9375q-0.890625 -0.9375 -0.890625 -2.609375q0 -1.75 0.890625 -2.703125q0.90625 -0.96875 2.34375 -0.96875q1.390625 0 2.265625 0.9375q0.875 0.9375 0.875 2.65625q0 0.109375 0 0.3125l-5.15625 0q0.0625 1.140625 0.640625 1.75q0.578125 0.59375 1.4375 0.59375q0.65625 0 1.109375 -0.328125q0.453125 -0.34375 0.71875 -1.078125zm-3.84375 -1.90625l3.859375 0q-0.078125 -0.859375 -0.4375 -1.296875q-0.5625 -0.6875 -1.453125 -0.6875q-0.8125 0 -1.359375 0.546875q-0.546875 0.53125 -0.609375 1.4375zm9.084351 3.078125l0.171875 1.03125q-0.5 0.109375 -0.890625 0.109375q-0.640625 0 -1.0 -0.203125q-0.34375 -0.203125 -0.484375 -0.53125q-0.140625 -0.328125 -0.140625 -1.390625l0 -3.96875l-0.859375 0l0 -0.90625l0.859375 0l0 -1.71875l1.171875 -0.703125l0 2.421875l1.171875 0l0 0.90625l-1.171875 0l0 4.046875q0 0.5 0.046875 0.640625q0.0625 0.140625 0.203125 0.234375q0.140625 0.078125 0.40625 0.078125q0.203125 0 0.515625 -0.046875zm5.8748474 -1.171875l1.203125 0.140625q-0.28125 1.0625 -1.0625 1.65625q-0.765625 0.578125 -1.9687347 0.578125q-1.515625 0 -2.40625 -0.9375q-0.890625 -0.9375 -0.890625 -2.609375q0 -1.75 0.890625 -2.703125q0.90625 -0.96875 2.34375 -0.96875q1.3906097 0 2.2656097 0.9375q0.875 0.9375 0.875 2.65625q0 0.109375 0 0.3125l-5.1562347 0q0.0625 1.140625 0.640625 1.75q0.578125 0.59375 1.4375 0.59375q0.65625 0 1.1093597 -0.328125q0.453125 -0.34375 0.71875 -1.078125zm-3.8437347 -1.90625l3.8593597 0q-0.078125 -0.859375 -0.4375 -1.296875q-0.5625 -0.6875 -1.4531097 -0.6875q-0.8125 0 -1.359375 0.546875q-0.546875 0.53125 -0.609375 1.4375z" fill-rule="nonzero"/><path fill="#000000" fill-opacity="0.0" d="m193.24985 489.18896l91.52756 0l0 30.70868l-91.52756 0z" fill-rule="evenodd"/><path fill="#8e7cc3" d="m211.73633 507.149l0 -9.546875l1.25 0l0 9.546875l-1.25 0zm3.3279877 0l0 -6.90625l1.0625 0l0 0.984375q0.75 -1.140625 2.1875 -1.140625q0.625 0 1.15625 0.21875q0.53125 0.21875 0.78125 0.59375q0.265625 0.359375 0.375 0.859375q0.0625 0.328125 0.0625 1.140625l0 4.25l-1.171875 0l0 -4.203125q0 -0.71875 -0.140625 -1.0625q-0.140625 -0.359375 -0.484375 -0.5625q-0.34375 -0.21875 -0.8125 -0.21875q-0.75 0 -1.296875 0.46875q-0.546875 0.46875 -0.546875 1.796875l0 3.78125l-1.171875 0zm6.9437256 -2.0625l1.15625 -0.1875q0.109375 0.703125 0.546875 1.078125q0.453125 0.359375 1.25 0.359375q0.8125 0 1.203125 -0.328125q0.390625 -0.328125 0.390625 -0.765625q0 -0.390625 -0.359375 -0.625q-0.234375 -0.15625 -1.1875 -0.390625q-1.296875 -0.328125 -1.796875 -0.5625q-0.484375 -0.25 -0.75 -0.65625q-0.25 -0.421875 -0.25 -0.9375q0 -0.453125 0.203125 -0.84375q0.21875 -0.40625 0.578125 -0.671875q0.28125 -0.1875 0.75 -0.328125q0.46875 -0.140625 1.015625 -0.140625q0.8125 0 1.421875 0.234375q0.609375 0.234375 0.90625 0.640625q0.296875 0.390625 0.40625 1.0625l-1.140625 0.15625q-0.078125 -0.53125 -0.453125 -0.828125q-0.375 -0.3125 -1.0625 -0.3125q-0.8125 0 -1.15625 0.265625q-0.34375 0.265625 -0.34375 0.625q0 0.234375 0.140625 0.421875q0.15625 0.1875 0.453125 0.3125q0.171875 0.0625 1.03125 0.296875q1.25 0.328125 1.734375 0.546875q0.5 0.203125 0.78125 0.609375q0.28125 0.40625 0.28125 1.0q0 0.59375 -0.34375 1.109375q-0.34375 0.515625 -1.0 0.796875q-0.640625 0.28125 -1.453125 0.28125q-1.34375 0 -2.046875 -0.5625q-0.703125 -0.5625 -0.90625 -1.65625zm11.6640625 2.0625l0 -1.015625q-0.8125 1.171875 -2.1875 1.171875q-0.609375 0 -1.140625 -0.234375q-0.53125 -0.234375 -0.796875 -0.578125q-0.25 -0.359375 -0.359375 -0.875q-0.0625 -0.34375 -0.0625 -1.09375l0 -4.28125l1.171875 0l0 3.828125q0 0.921875 0.0625 1.234375q0.109375 0.46875 0.46875 0.734375q0.359375 0.25 0.890625 0.25q0.515625 0 0.984375 -0.265625q0.46875 -0.265625 0.65625 -0.734375q0.1875 -0.46875 0.1875 -1.34375l0 -3.703125l1.171875 0l0 6.90625l-1.046875 0zm2.8656006 0l0 -9.546875l1.171875 0l0 9.546875l-1.171875 0zm7.49234 -0.859375q-0.65625 0.5625 -1.265625 0.796875q-0.59375 0.21875 -1.28125 0.21875q-1.140625 0 -1.75 -0.546875q-0.609375 -0.5625 -0.609375 -1.4375q0 -0.5 0.21875 -0.921875q0.234375 -0.421875 0.609375 -0.671875q0.375 -0.25 0.84375 -0.390625q0.34375 -0.078125 1.046875 -0.171875q1.421875 -0.171875 2.09375 -0.40625q0 -0.234375 0 -0.296875q0 -0.71875 -0.328125 -1.015625q-0.453125 -0.390625 -1.34375 -0.390625q-0.8125 0 -1.21875 0.296875q-0.390625 0.28125 -0.578125 1.015625l-1.140625 -0.15625q0.15625 -0.734375 0.515625 -1.1875q0.359375 -0.453125 1.03125 -0.6875q0.671875 -0.25 1.5625 -0.25q0.890625 0 1.4375 0.203125q0.5625 0.203125 0.8125 0.53125q0.265625 0.3125 0.375 0.796875q0.046875 0.296875 0.046875 1.078125l0 1.5625q0 1.625 0.078125 2.0625q0.078125 0.4375 0.296875 0.828125l-1.21875 0q-0.1875 -0.359375 -0.234375 -0.859375zm-0.09375 -2.609375q-0.640625 0.265625 -1.921875 0.4375q-0.71875 0.109375 -1.015625 0.25q-0.296875 0.125 -0.46875 0.375q-0.15625 0.25 -0.15625 0.546875q0 0.46875 0.34375 0.78125q0.359375 0.3125 1.046875 0.3125q0.671875 0 1.203125 -0.296875q0.53125 -0.296875 0.78125 -0.8125q0.1875 -0.390625 0.1875 -1.171875l0 -0.421875zm5.5531006 2.421875l0.171875 1.03125q-0.5 0.109375 -0.890625 0.109375q-0.640625 0 -1.0 -0.203125q-0.34375 -0.203125 -0.484375 -0.53125q-0.140625 -0.328125 -0.140625 -1.390625l0 -3.96875l-0.859375 0l0 -0.90625l0.859375 0l0 -1.71875l1.171875 -0.703125l0 2.421875l1.171875 0l0 0.90625l-1.171875 0l0 4.046875q0 0.5 0.046875 0.640625q0.0625 0.140625 0.203125 0.234375q0.140625 0.078125 0.40625 0.078125q0.203125 0 0.515625 -0.046875zm1.1561127 -7.140625l0 -1.359375l1.171875 0l0 1.359375l-1.171875 0zm0 8.1875l0 -6.90625l1.171875 0l0 6.90625l-1.171875 0zm2.507965 -3.453125q0 -1.921875 1.078125 -2.84375q0.890625 -0.765625 2.171875 -0.765625q1.421875 0 2.328125 0.9375q0.90625 0.921875 0.90625 2.578125q0 1.328125 -0.40625 2.09375q-0.390625 0.765625 -1.15625 1.1875q-0.765625 0.421875 -1.671875 0.421875q-1.453125 0 -2.359375 -0.921875q-0.890625 -0.9375 -0.890625 -2.6875zm1.203125 0q0 1.328125 0.578125 1.984375q0.59375 0.65625 1.46875 0.65625q0.875 0 1.453125 -0.65625q0.578125 -0.671875 0.578125 -2.03125q0 -1.28125 -0.59375 -1.9375q-0.578125 -0.65625 -1.4375 -0.65625q-0.875 0 -1.46875 0.65625q-0.578125 0.65625 -0.578125 1.984375zm6.6468506 3.453125l0 -6.90625l1.0625 0l0 0.984375q0.75 -1.140625 2.1875 -1.140625q0.625 0 1.15625 0.21875q0.53125 0.21875 0.78125 0.59375q0.265625 0.359375 0.375 0.859375q0.0625 0.328125 0.0625 1.140625l0 4.25l-1.171875 0l0 -4.203125q0 -0.71875 -0.140625 -1.0625q-0.140625 -0.359375 -0.484375 -0.5625q-0.34375 -0.21875 -0.8125 -0.21875q-0.75 0 -1.296875 0.46875q-0.546875 0.46875 -0.546875 1.796875l0 3.78125l-1.171875 0z" fill-rule="nonzero"/><path fill="#000000" fill-opacity="0.0" d="m291.46326 486.60873l66.519684 0l0 30.708649l-66.519684 0z" fill-rule="evenodd"/><path fill="#e06666" d="m305.01373 504.56876l0 -9.546875l3.59375 0q0.953125 0 1.453125 0.09375q0.703125 0.125 1.171875 0.453125q0.484375 0.328125 0.765625 0.921875q0.296875 0.59375 0.296875 1.296875q0 1.21875 -0.78125 2.0625q-0.765625 0.84375 -2.796875 0.84375l-2.4375 0l0 3.875l-1.265625 0zm1.265625 -5.0l2.453125 0q1.234375 0 1.75 -0.453125q0.515625 -0.46875 0.515625 -1.28125q0 -0.609375 -0.3125 -1.03125q-0.296875 -0.421875 -0.796875 -0.5625q-0.3125 -0.09375 -1.171875 -0.09375l-2.4375 0l0 3.421875zm7.45224 5.0l0 -9.546875l1.171875 0l0 9.546875l-1.171875 0zm7.49234 -0.859375q-0.65625 0.5625 -1.265625 0.796875q-0.59375 0.21875 -1.28125 0.21875q-1.140625 0 -1.75 -0.546875q-0.609375 -0.5625 -0.609375 -1.4375q0 -0.5 0.21875 -0.921875q0.234375 -0.421875 0.609375 -0.671875q0.375 -0.25 0.84375 -0.390625q0.34375 -0.078125 1.046875 -0.171875q1.421875 -0.171875 2.09375 -0.40625q0 -0.234375 0 -0.296875q0 -0.71875 -0.328125 -1.015625q-0.453125 -0.390625 -1.34375 -0.390625q-0.8125 0 -1.21875 0.296875q-0.390625 0.28125 -0.578125 1.015625l-1.140625 -0.15625q0.15625 -0.734375 0.515625 -1.1875q0.359375 -0.453125 1.03125 -0.6875q0.671875 -0.25 1.5625 -0.25q0.890625 0 1.4375 0.203125q0.5625 0.203125 0.8125 0.53125q0.265625 0.3125 0.375 0.796875q0.046875 0.296875 0.046875 1.078125l0 1.5625q0 1.625 0.078125 2.0625q0.078125 0.4375 0.296875 0.828125l-1.21875 0q-0.1875 -0.359375 -0.234375 -0.859375zm-0.09375 -2.609375q-0.640625 0.265625 -1.921875 0.4375q-0.71875 0.109375 -1.015625 0.25q-0.296875 0.125 -0.46875 0.375q-0.15625 0.25 -0.15625 0.546875q0 0.46875 0.34375 0.78125q0.359375 0.3125 1.046875 0.3125q0.671875 0 1.203125 -0.296875q0.53125 -0.296875 0.78125 -0.8125q0.1875 -0.390625 0.1875 -1.171875l0 -0.421875zm2.5218506 1.40625l1.15625 -0.1875q0.109375 0.703125 0.546875 1.078125q0.453125 0.359375 1.25 0.359375q0.8125 0 1.203125 -0.328125q0.390625 -0.328125 0.390625 -0.765625q0 -0.390625 -0.359375 -0.625q-0.234375 -0.15625 -1.1875 -0.390625q-1.296875 -0.328125 -1.796875 -0.5625q-0.484375 -0.25 -0.75 -0.65625q-0.25 -0.421875 -0.25 -0.9375q0 -0.453125 0.203125 -0.84375q0.21875 -0.40625 0.578125 -0.671875q0.28125 -0.1875 0.75 -0.328125q0.46875 -0.140625 1.015625 -0.140625q0.8125 0 1.421875 0.234375q0.609375 0.234375 0.90625 0.640625q0.296875 0.390625 0.40625 1.0625l-1.140625 0.15625q-0.078125 -0.53125 -0.453125 -0.828125q-0.375 -0.3125 -1.0625 -0.3125q-0.8125 0 -1.15625 0.265625q-0.34375 0.265625 -0.34375 0.625q0 0.234375 0.140625 0.421875q0.15625 0.1875 0.453125 0.3125q0.171875 0.0625 1.03125 0.296875q1.25 0.328125 1.734375 0.546875q0.5 0.203125 0.78125 0.609375q0.28125 0.40625 0.28125 1.0q0 0.59375 -0.34375 1.109375q-0.34375 0.515625 -1.0 0.796875q-0.640625 0.28125 -1.453125 0.28125q-1.34375 0 -2.046875 -0.5625q-0.703125 -0.5625 -0.90625 -1.65625zm9.6953125 1.015625l0.171875 1.03125q-0.5 0.109375 -0.890625 0.109375q-0.640625 0 -1.0 -0.203125q-0.34375 -0.203125 -0.484375 -0.53125q-0.140625 -0.328125 -0.140625 -1.390625l0 -3.96875l-0.859375 0l0 -0.90625l0.859375 0l0 -1.71875l1.171875 -0.703125l0 2.421875l1.171875 0l0 0.90625l-1.171875 0l0 4.046875q0 0.5 0.046875 0.640625q0.0625 0.140625 0.203125 0.234375q0.140625 0.078125 0.40625 0.078125q0.203125 0 0.515625 -0.046875zm5.874878 -1.171875l1.203125 0.140625q-0.28125 1.0625 -1.0625 1.65625q-0.765625 0.578125 -1.96875 0.578125q-1.515625 0 -2.40625 -0.9375q-0.890625 -0.9375 -0.890625 -2.609375q0 -1.75 0.890625 -2.703125q0.90625 -0.96875 2.34375 -0.96875q1.390625 0 2.265625 0.9375q0.875 0.9375 0.875 2.65625q0 0.109375 0 0.3125l-5.15625 0q0.0625 1.140625 0.640625 1.75q0.578125 0.59375 1.4375 0.59375q0.65625 0 1.109375 -0.328125q0.453125 -0.34375 0.71875 -1.078125zm-3.84375 -1.90625l3.859375 0q-0.078125 -0.859375 -0.4375 -1.296875q-0.5625 -0.6875 -1.453125 -0.6875q-0.8125 0 -1.359375 0.546875q-0.546875 0.53125 -0.609375 1.4375zm6.5062256 4.125l0 -6.90625l1.0625 0l0 1.046875q0.40625 -0.734375 0.734375 -0.96875q0.34375 -0.234375 0.765625 -0.234375q0.59375 0 1.203125 0.375l-0.40625 1.078125q-0.4375 -0.25 -0.859375 -0.25q-0.390625 0 -0.703125 0.234375q-0.296875 0.234375 -0.421875 0.640625q-0.203125 0.625 -0.203125 1.359375l0 3.625l-1.171875 0z" fill-rule="nonzero"/><path fill="#000000" d="m437.24802 375.2861l0 0c0 -2.4613647 1.9953308 -4.4566956 4.4566956 -4.4566956l0 0c1.1819763 0 2.3155518 0.46954346 3.1513367 1.3053284c0.8358154 0.8357849 1.3053589 1.9693604 1.3053589 3.1513672l0 0c0 2.4613647 -1.9953308 4.456665 -4.4566956 4.456665l0 0c-2.4613647 0 -4.4566956 -1.9953003 -4.4566956 -4.456665z" fill-rule="evenodd"/><path stroke="#000000" stroke-width="1.0" stroke-linejoin="round" stroke-linecap="butt" d="m437.24802 375.2861l0 0c0 -2.4613647 1.9953308 -4.4566956 4.4566956 -4.4566956l0 0c1.1819763 0 2.3155518 0.46954346 3.1513367 1.3053284c0.8358154 0.8357849 1.3053589 1.9693604 1.3053589 3.1513672l0 0c0 2.4613647 -1.9953308 4.456665 -4.4566956 4.456665l0 0c-2.4613647 0 -4.4566956 -1.9953003 -4.4566956 -4.456665z" fill-rule="evenodd"/><path fill="#000000" fill-opacity="0.0" d="m108.337326 397.6727l48.692917 0l0 28.440948l-48.692917 0z" fill-rule="evenodd"/><path fill="#4a86e8" d="m135.07991 412.93445l0 0.90625l-5.03125 0q-0.015625 -0.34375 0.109375 -0.65625q0.1875 -0.515625 0.609375 -1.015625q0.421875 -0.5 1.234375 -1.140625q1.234375 -1.03125 1.671875 -1.625q0.4375 -0.59375 0.4375 -1.125q0 -0.5625 -0.40625 -0.9375q-0.390625 -0.390625 -1.03125 -0.390625q-0.671875 0 -1.078125 0.40625q-0.40625 0.40625 -0.40625 1.125l-0.96875 -0.09375q0.09375 -1.078125 0.734375 -1.640625q0.65625 -0.5625 1.734375 -0.5625q1.109375 0 1.75 0.609375q0.640625 0.609375 0.640625 1.5q0 0.46875 -0.1875 0.90625q-0.1875 0.4375 -0.625 0.9375q-0.4375 0.484375 -1.453125 1.328125q-0.828125 0.71875 -1.078125 0.96875q-0.234375 0.25 -0.390625 0.5l3.734375 0z" fill-rule="nonzero"/><path fill="#000000" fill-opacity="0.0" d="m92.33675 377.5553l79.62204 0l0 28.440948l-79.62204 0z" fill-rule="evenodd"/><path fill="#4a86e8" d="m122.62457 393.7233l0 -7.625l3.375 0q1.015625 0 1.546875 0.203125q0.53125 0.203125 0.84375 0.734375q0.328125 0.515625 0.328125 1.140625q0 0.8125 -0.53125 1.375q-0.515625 0.546875 -1.625 0.703125q0.40625 0.1875 0.609375 0.375q0.453125 0.40625 0.84375 1.015625l1.328125 2.078125l-1.265625 0l-1.015625 -1.59375q-0.4375 -0.6875 -0.734375 -1.046875q-0.28125 -0.359375 -0.515625 -0.5q-0.21875 -0.15625 -0.453125 -0.203125q-0.171875 -0.046875 -0.5625 -0.046875l-1.171875 0l0 3.390625l-1.0 0zm1.0 -4.265625l2.171875 0q0.6875 0 1.078125 -0.140625q0.390625 -0.140625 0.59375 -0.453125q0.203125 -0.3125 0.203125 -0.6875q0 -0.546875 -0.390625 -0.890625q-0.390625 -0.34375 -1.234375 -0.34375l-2.421875 0l0 2.515625z" fill-rule="nonzero"/><path fill="#4a86e8" d="m132.35143 396.37955l0.609375 0.078125q-0.09375 0.625 -0.515625 0.984375q-0.40625 0.359375 -1.015625 0.359375q-0.75 0 -1.21875 -0.484375q-0.453125 -0.5 -0.453125 -1.421875q0 -0.59375 0.1875 -1.046875q0.203125 -0.453125 0.609375 -0.671875q0.40625 -0.21875 0.875 -0.21875q0.609375 0 0.984375 0.3125q0.390625 0.296875 0.5 0.84375l-0.609375 0.09375q-0.09375 -0.359375 -0.3125 -0.546875q-0.21875 -0.1875 -0.53125 -0.1875q-0.46875 0 -0.765625 0.34375q-0.296875 0.328125 -0.296875 1.0625q0 0.734375 0.28125 1.078125q0.28125 0.328125 0.75 0.328125q0.359375 0 0.609375 -0.21875q0.25 -0.21875 0.3125 -0.6875zm3.5390015 1.34375l0 -0.46875q-0.34375 0.546875 -1.03125 0.546875q-0.4375 0 -0.8125 -0.234375q-0.359375 -0.25 -0.5625 -0.6875q-0.203125 -0.4375 -0.203125 -1.0q0 -0.546875 0.171875 -1.0q0.1875 -0.453125 0.546875 -0.6875q0.375 -0.234375 0.828125 -0.234375q0.34375 0 0.59375 0.140625q0.265625 0.140625 0.421875 0.359375l0 -1.828125l0.625 0l0 5.09375l-0.578125 0zm-1.96875 -1.84375q0 0.71875 0.296875 1.0625q0.296875 0.34375 0.703125 0.34375q0.40625 0 0.6875 -0.328125q0.296875 -0.328125 0.296875 -1.015625q0 -0.765625 -0.296875 -1.109375q-0.296875 -0.359375 -0.71875 -0.359375q-0.421875 0 -0.703125 0.34375q-0.265625 0.328125 -0.265625 1.0625zm3.6882172 1.84375l0 -0.71875l0.71875 0l0 0.71875q0 0.390625 -0.140625 0.625q-0.140625 0.25 -0.4375 0.375l-0.171875 -0.265625q0.1875 -0.078125 0.28125 -0.25q0.09375 -0.171875 0.109375 -0.484375l-0.359375 0zm4.225189 -1.34375l0.609375 0.078125q-0.09375 0.625 -0.515625 0.984375q-0.40625 0.359375 -1.015625 0.359375q-0.75 0 -1.21875 -0.484375q-0.453125 -0.5 -0.453125 -1.421875q0 -0.59375 0.1875 -1.046875q0.203125 -0.453125 0.609375 -0.671875q0.40625 -0.21875 0.875 -0.21875q0.609375 0 0.984375 0.3125q0.390625 0.296875 0.5 0.84375l-0.609375 0.09375q-0.09375 -0.359375 -0.3125 -0.546875q-0.21875 -0.1875 -0.53125 -0.1875q-0.46875 0 -0.765625 0.34375q-0.296875 0.328125 -0.296875 1.0625q0 0.734375 0.28125 1.078125q0.28125 0.328125 0.75 0.328125q0.359375 0 0.609375 -0.21875q0.25 -0.21875 0.3125 -0.6875z" fill-rule="nonzero"/><path fill="#000000" fill-opacity="0.0" d="m118.58142 403.61322l30.960632 0" fill-rule="evenodd"/><path stroke="#4a86e8" stroke-width="1.0" stroke-linejoin="round" stroke-linecap="butt" d="m118.58142 403.61322l30.960632 0" fill-rule="evenodd"/><path fill="#000000" fill-opacity="0.0" d="m148.33733 397.6727l48.692917 0l0 28.440948l-48.692917 0z" fill-rule="evenodd"/><path fill="#4a86e8" d="m175.07991 412.93445l0 0.90625l-5.03125 0q-0.015625 -0.34375 0.109375 -0.65625q0.1875 -0.515625 0.609375 -1.015625q0.421875 -0.5 1.234375 -1.140625q1.234375 -1.03125 1.671875 -1.625q0.4375 -0.59375 0.4375 -1.125q0 -0.5625 -0.40625 -0.9375q-0.390625 -0.390625 -1.03125 -0.390625q-0.671875 0 -1.078125 0.40625q-0.40625 0.40625 -0.40625 1.125l-0.96875 -0.09375q0.09375 -1.078125 0.734375 -1.640625q0.65625 -0.5625 1.734375 -0.5625q1.109375 0 1.75 0.609375q0.640625 0.609375 0.640625 1.5q0 0.46875 -0.1875 0.90625q-0.1875 0.4375 -0.625 0.9375q-0.4375 0.484375 -1.453125 1.328125q-0.828125 0.71875 -1.078125 0.96875q-0.234375 0.25 -0.390625 0.5l3.734375 0z" fill-rule="nonzero"/><path fill="#000000" fill-opacity="0.0" d="m132.33675 377.5553l79.62204 0l0 28.440948l-79.62204 0z" fill-rule="evenodd"/><path fill="#4a86e8" d="m162.62457 393.7233l0 -7.625l3.375 0q1.015625 0 1.546875 0.203125q0.53125 0.203125 0.84375 0.734375q0.328125 0.515625 0.328125 1.140625q0 0.8125 -0.53125 1.375q-0.515625 0.546875 -1.625 0.703125q0.40625 0.1875 0.609375 0.375q0.453125 0.40625 0.84375 1.015625l1.328125 2.078125l-1.265625 0l-1.015625 -1.59375q-0.4375 -0.6875 -0.734375 -1.046875q-0.28125 -0.359375 -0.515625 -0.5q-0.21875 -0.15625 -0.453125 -0.203125q-0.171875 -0.046875 -0.5625 -0.046875l-1.171875 0l0 3.390625l-1.0 0zm1.0 -4.265625l2.171875 0q0.6875 0 1.078125 -0.140625q0.390625 -0.140625 0.59375 -0.453125q0.203125 -0.3125 0.203125 -0.6875q0 -0.546875 -0.390625 -0.890625q-0.390625 -0.34375 -1.234375 -0.34375l-2.421875 0l0 2.515625z" fill-rule="nonzero"/><path fill="#4a86e8" d="m172.35143 396.37955l0.609375 0.078125q-0.09375 0.625 -0.515625 0.984375q-0.40625 0.359375 -1.015625 0.359375q-0.75 0 -1.21875 -0.484375q-0.453125 -0.5 -0.453125 -1.421875q0 -0.59375 0.1875 -1.046875q0.203125 -0.453125 0.609375 -0.671875q0.40625 -0.21875 0.875 -0.21875q0.609375 0 0.984375 0.3125q0.390625 0.296875 0.5 0.84375l-0.609375 0.09375q-0.09375 -0.359375 -0.3125 -0.546875q-0.21875 -0.1875 -0.53125 -0.1875q-0.46875 0 -0.765625 0.34375q-0.296875 0.328125 -0.296875 1.0625q0 0.734375 0.28125 1.078125q0.28125 0.328125 0.75 0.328125q0.359375 0 0.609375 -0.21875q0.25 -0.21875 0.3125 -0.6875zm3.5390015 1.34375l0 -0.46875q-0.34375 0.546875 -1.03125 0.546875q-0.4375 0 -0.8125 -0.234375q-0.359375 -0.25 -0.5625 -0.6875q-0.203125 -0.4375 -0.203125 -1.0q0 -0.546875 0.171875 -1.0q0.1875 -0.453125 0.546875 -0.6875q0.375 -0.234375 0.828125 -0.234375q0.34375 0 0.59375 0.140625q0.265625 0.140625 0.421875 0.359375l0 -1.828125l0.625 0l0 5.09375l-0.578125 0zm-1.96875 -1.84375q0 0.71875 0.296875 1.0625q0.296875 0.34375 0.703125 0.34375q0.40625 0 0.6875 -0.328125q0.296875 -0.328125 0.296875 -1.015625q0 -0.765625 -0.296875 -1.109375q-0.296875 -0.359375 -0.71875 -0.359375q-0.421875 0 -0.703125 0.34375q-0.265625 0.328125 -0.265625 1.0625zm3.6882172 1.84375l0 -0.71875l0.71875 0l0 0.71875q0 0.390625 -0.140625 0.625q-0.140625 0.25 -0.4375 0.375l-0.171875 -0.265625q0.1875 -0.078125 0.28125 -0.25q0.09375 -0.171875 0.109375 -0.484375l-0.359375 0zm4.225189 -1.34375l0.609375 0.078125q-0.09375 0.625 -0.515625 0.984375q-0.40625 0.359375 -1.015625 0.359375q-0.75 0 -1.21875 -0.484375q-0.453125 -0.5 -0.453125 -1.421875q0 -0.59375 0.1875 -1.046875q0.203125 -0.453125 0.609375 -0.671875q0.40625 -0.21875 0.875 -0.21875q0.609375 0 0.984375 0.3125q0.390625 0.296875 0.5 0.84375l-0.609375 0.09375q-0.09375 -0.359375 -0.3125 -0.546875q-0.21875 -0.1875 -0.53125 -0.1875q-0.46875 0 -0.765625 0.34375q-0.296875 0.328125 -0.296875 1.0625q0 0.734375 0.28125 1.078125q0.28125 0.328125 0.75 0.328125q0.359375 0 0.609375 -0.21875q0.25 -0.21875 0.3125 -0.6875z" fill-rule="nonzero"/><path fill="#000000" fill-opacity="0.0" d="m158.58142 403.61322l30.960632 0" fill-rule="evenodd"/><path stroke="#4a86e8" stroke-width="1.0" stroke-linejoin="round" stroke-linecap="butt" d="m158.58142 403.61322l30.960632 0" fill-rule="evenodd"/><path fill="#000000" fill-opacity="0.0" d="m192.79256 397.6727l48.6929 0l0 28.440948l-48.6929 0z" fill-rule="evenodd"/><path fill="#4a86e8" d="m219.53514 412.93445l0 0.90625l-5.03125 0q-0.015625 -0.34375 0.109375 -0.65625q0.1875 -0.515625 0.609375 -1.015625q0.421875 -0.5 1.234375 -1.140625q1.234375 -1.03125 1.671875 -1.625q0.4375 -0.59375 0.4375 -1.125q0 -0.5625 -0.40625 -0.9375q-0.390625 -0.390625 -1.03125 -0.390625q-0.671875 0 -1.078125 0.40625q-0.40625 0.40625 -0.40625 1.125l-0.96875 -0.09375q0.09375 -1.078125 0.734375 -1.640625q0.65625 -0.5625 1.734375 -0.5625q1.109375 0 1.75 0.609375q0.640625 0.609375 0.640625 1.5q0 0.46875 -0.1875 0.90625q-0.1875 0.4375 -0.625 0.9375q-0.4375 0.484375 -1.453125 1.328125q-0.828125 0.71875 -1.078125 0.96875q-0.234375 0.25 -0.390625 0.5l3.734375 0z" fill-rule="nonzero"/><path fill="#000000" fill-opacity="0.0" d="m176.79196 377.5553l79.62204 0l0 28.440948l-79.62204 0z" fill-rule="evenodd"/><path fill="#4a86e8" d="m208.06738 393.7233l0 -7.625l3.375 0q1.015625 0 1.546875 0.203125q0.53125 0.203125 0.84375 0.734375q0.328125 0.515625 0.328125 1.140625q0 0.8125 -0.53125 1.375q-0.515625 0.546875 -1.625 0.703125q0.40625 0.1875 0.609375 0.375q0.453125 0.40625 0.84375 1.015625l1.328125 2.078125l-1.265625 0l-1.015625 -1.59375q-0.4375 -0.6875 -0.734375 -1.046875q-0.28125 -0.359375 -0.515625 -0.5q-0.21875 -0.15625 -0.453125 -0.203125q-0.171875 -0.046875 -0.5625 -0.046875l-1.171875 0l0 3.390625l-1.0 0zm1.0 -4.265625l2.171875 0q0.6875 0 1.078125 -0.140625q0.390625 -0.140625 0.59375 -0.453125q0.203125 -0.3125 0.203125 -0.6875q0 -0.546875 -0.390625 -0.890625q-0.390625 -0.34375 -1.234375 -0.34375l-2.421875 0l0 2.515625z" fill-rule="nonzero"/><path fill="#4a86e8" d="m217.79424 396.37955l0.609375 0.078125q-0.09375 0.625 -0.515625 0.984375q-0.40625 0.359375 -1.015625 0.359375q-0.75 0 -1.21875 -0.484375q-0.453125 -0.5 -0.453125 -1.421875q0 -0.59375 0.1875 -1.046875q0.203125 -0.453125 0.609375 -0.671875q0.40625 -0.21875 0.875 -0.21875q0.609375 0 0.984375 0.3125q0.390625 0.296875 0.5 0.84375l-0.609375 0.09375q-0.09375 -0.359375 -0.3125 -0.546875q-0.21875 -0.1875 -0.53125 -0.1875q-0.46875 0 -0.765625 0.34375q-0.296875 0.328125 -0.296875 1.0625q0 0.734375 0.28125 1.078125q0.28125 0.328125 0.75 0.328125q0.359375 0 0.609375 -0.21875q0.25 -0.21875 0.3125 -0.6875zm3.5390015 1.34375l0 -0.46875q-0.34375 0.546875 -1.03125 0.546875q-0.4375 0 -0.8125 -0.234375q-0.359375 -0.25 -0.5625 -0.6875q-0.203125 -0.4375 -0.203125 -1.0q0 -0.546875 0.171875 -1.0q0.1875 -0.453125 0.546875 -0.6875q0.375 -0.234375 0.828125 -0.234375q0.34375 0 0.59375 0.140625q0.265625 0.140625 0.421875 0.359375l0 -1.828125l0.625 0l0 5.09375l-0.578125 0zm-1.96875 -1.84375q0 0.71875 0.296875 1.0625q0.296875 0.34375 0.703125 0.34375q0.40625 0 0.6875 -0.328125q0.296875 -0.328125 0.296875 -1.015625q0 -0.765625 -0.296875 -1.109375q-0.296875 -0.359375 -0.71875 -0.359375q-0.421875 0 -0.703125 0.34375q-0.265625 0.328125 -0.265625 1.0625zm3.6882172 1.84375l0 -0.71875l0.71875 0l0 0.71875q0 0.390625 -0.140625 0.625q-0.140625 0.25 -0.4375 0.375l-0.171875 -0.265625q0.1875 -0.078125 0.28125 -0.25q0.09375 -0.171875 0.109375 -0.484375l-0.359375 0zm1.8189392 -4.375l0 -0.71875l0.625 0l0 0.71875l-0.625 0zm0 4.375l0 -3.6875l0.625 0l0 3.6875l-0.625 0z" fill-rule="nonzero"/><path fill="#000000" fill-opacity="0.0" d="m205.78331 403.3622l23.527557 0" fill-rule="evenodd"/><path stroke="#4a86e8" stroke-width="1.0" stroke-linejoin="round" stroke-linecap="butt" d="m205.78331 403.3622l23.527557 0" fill-rule="evenodd"/><path fill="#000000" fill-opacity="0.0" d="m297.35046 397.6727l48.6929 0l0 28.440948l-48.6929 0z" fill-rule="evenodd"/><path fill="#4a86e8" d="m324.09305 412.93445l0 0.90625l-5.03125 0q-0.015625 -0.34375 0.109375 -0.65625q0.1875 -0.515625 0.609375 -1.015625q0.421875 -0.5 1.234375 -1.140625q1.234375 -1.03125 1.671875 -1.625q0.4375 -0.59375 0.4375 -1.125q0 -0.5625 -0.40625 -0.9375q-0.390625 -0.390625 -1.03125 -0.390625q-0.671875 0 -1.078125 0.40625q-0.40625 0.40625 -0.40625 1.125l-0.96875 -0.09375q0.09375 -1.078125 0.734375 -1.640625q0.65625 -0.5625 1.734375 -0.5625q1.109375 0 1.75 0.609375q0.640625 0.609375 0.640625 1.5q0 0.46875 -0.1875 0.90625q-0.1875 0.4375 -0.625 0.9375q-0.4375 0.484375 -1.453125 1.328125q-0.828125 0.71875 -1.078125 0.96875q-0.234375 0.25 -0.390625 0.5l3.734375 0z" fill-rule="nonzero"/><path fill="#000000" fill-opacity="0.0" d="m281.34985 377.5553l79.62207 0l0 28.440948l-79.62207 0z" fill-rule="evenodd"/><path fill="#4a86e8" d="m311.43808 393.7233l0 -7.625l3.375 0q1.015625 0 1.546875 0.203125q0.53125 0.203125 0.84375 0.734375q0.328125 0.515625 0.328125 1.140625q0 0.8125 -0.53125 1.375q-0.515625 0.546875 -1.625 0.703125q0.40625 0.1875 0.609375 0.375q0.453125 0.40625 0.84375 1.015625l1.328125 2.078125l-1.265625 0l-1.015625 -1.59375q-0.4375 -0.6875 -0.734375 -1.046875q-0.28125 -0.359375 -0.515625 -0.5q-0.21875 -0.15625 -0.453125 -0.203125q-0.171875 -0.046875 -0.5625 -0.046875l-1.171875 0l0 3.390625l-1.0 0zm1.0 -4.265625l2.171875 0q0.6875 0 1.078125 -0.140625q0.390625 -0.140625 0.59375 -0.453125q0.203125 -0.3125 0.203125 -0.6875q0 -0.546875 -0.390625 -0.890625q-0.390625 -0.34375 -1.234375 -0.34375l-2.421875 0l0 2.515625z" fill-rule="nonzero"/><path fill="#4a86e8" d="m321.16495 396.37955l0.609375 0.078125q-0.09375 0.625 -0.515625 0.984375q-0.40625 0.359375 -1.015625 0.359375q-0.75 0 -1.21875 -0.484375q-0.453125 -0.5 -0.453125 -1.421875q0 -0.59375 0.1875 -1.046875q0.203125 -0.453125 0.609375 -0.671875q0.40625 -0.21875 0.875 -0.21875q0.609375 0 0.984375 0.3125q0.390625 0.296875 0.5 0.84375l-0.609375 0.09375q-0.09375 -0.359375 -0.3125 -0.546875q-0.21875 -0.1875 -0.53125 -0.1875q-0.46875 0 -0.765625 0.34375q-0.296875 0.328125 -0.296875 1.0625q0 0.734375 0.28125 1.078125q0.28125 0.328125 0.75 0.328125q0.359375 0 0.609375 -0.21875q0.25 -0.21875 0.3125 -0.6875zm3.5390015 1.34375l0 -0.46875q-0.34375 0.546875 -1.03125 0.546875q-0.4375 0 -0.8125 -0.234375q-0.359375 -0.25 -0.5625 -0.6875q-0.203125 -0.4375 -0.203125 -1.0q0 -0.546875 0.171875 -1.0q0.1875 -0.453125 0.546875 -0.6875q0.375 -0.234375 0.828125 -0.234375q0.34375 0 0.59375 0.140625q0.265625 0.140625 0.421875 0.359375l0 -1.828125l0.625 0l0 5.09375l-0.578125 0zm-1.96875 -1.84375q0 0.71875 0.296875 1.0625q0.296875 0.34375 0.703125 0.34375q0.40625 0 0.6875 -0.328125q0.296875 -0.328125 0.296875 -1.015625q0 -0.765625 -0.296875 -1.109375q-0.296875 -0.359375 -0.71875 -0.359375q-0.421875 0 -0.703125 0.34375q-0.265625 0.328125 -0.265625 1.0625zm3.688202 1.84375l0 -0.71875l0.71875 0l0 0.71875q0 0.390625 -0.140625 0.625q-0.140625 0.25 -0.4375 0.375l-0.171875 -0.265625q0.1875 -0.078125 0.28125 -0.25q0.09375 -0.171875 0.109375 -0.484375l-0.359375 0zm1.8189392 1.40625l0 -5.09375l0.5625 0l0 0.484375q0.203125 -0.28125 0.453125 -0.421875q0.265625 -0.140625 0.625 -0.140625q0.46875 0 0.828125 0.25q0.359375 0.234375 0.546875 0.671875q0.1875 0.4375 0.1875 0.96875q0 0.5625 -0.203125 1.015625q-0.203125 0.453125 -0.59375 0.703125q-0.390625 0.234375 -0.8125 0.234375q-0.3125 0 -0.5625 -0.125q-0.25 -0.140625 -0.40625 -0.328125l0 1.78125l-0.625 0zm0.5625 -3.234375q0 0.71875 0.28125 1.0625q0.296875 0.328125 0.703125 0.328125q0.421875 0 0.71875 -0.34375q0.296875 -0.359375 0.296875 -1.09375q0 -0.703125 -0.296875 -1.046875q-0.28125 -0.359375 -0.6875 -0.359375q-0.390625 0 -0.703125 0.375q-0.3125 0.375 -0.3125 1.078125z" fill-rule="nonzero"/><path fill="#000000" fill-opacity="0.0" d="m310.34122 403.3622l23.527557 0" fill-rule="evenodd"/><path stroke="#4a86e8" stroke-width="1.0" stroke-linejoin="round" stroke-linecap="butt" d="m310.34122 403.3622l23.527557 0" fill-rule="evenodd"/></g></svg>