<svg version="1.1" viewBox="0.0 0.0 960.0 540.0" fill="none" stroke="none" stroke-linecap="square" stroke-miterlimit="10" xmlns:xlink="http://www.w3.org/1999/xlink" xmlns="http://www.w3.org/2000/svg"><clipPath id="g24c039949cc_3_8.0"><path d="m0 0l960.0 0l0 540.0l-960.0 0l0 -540.0z" clip-rule="nonzero"/></clipPath><g clip-path="url(#g24c039949cc_3_8.0)"><path fill="#ffffff" d="m0 0l960.0 0l0 540.0l-960.0 0z" fill-rule="evenodd"/><path fill="#000000" fill-opacity="0.0" d="m441.75067 158.34207l0 217.92126" fill-rule="evenodd"/><path stroke="#000000" stroke-width="1.0" stroke-linejoin="round" stroke-linecap="butt" d="m441.75067 158.34207l0 217.92126" fill-rule="evenodd"/><path fill="#000000" d="m437.24802 375.2861l0 0c0 -2.4613647 1.9953308 -4.4566956 4.4566956 -4.4566956l0 0c1.1819763 0 2.3155518 0.46954346 3.1513367 1.3053284c0.8358154 0.8357849 1.3053589 1.9693604 1.3053589 3.1513672l0 0c0 2.4613647 -1.9953308 4.456665 -4.4566956 4.456665l0 0c-2.4613647 0 -4.4566956 -1.9953003 -4.4566956 -4.456665z" fill-rule="evenodd"/><path stroke="#000000" stroke-width="1.0" stroke-linejoin="round" stroke-linecap="butt" d="m437.24802 375.2861l0 0c0 -2.4613647 1.9953308 -4.4566956 4.4566956 -4.4566956l0 0c1.1819763 0 2.3155518 0.46954346 3.1513367 1.3053284c0.8358154 0.8357849 1.3053589 1.9693604 1.3053589 3.1513672l0 0c0 2.4613647 -1.9953308 4.456665 -4.4566956 4.456665l0 0c-2.4613647 0 -4.4566956 -1.9953003 -4.4566956 -4.456665z" fill-rule="evenodd"/><path fill="#000000" d="m437.5893 162.18028l0 0c0 -2.4613647 1.9953308 -4.4566956 4.4566956 -4.4566956l0 0c1.1819763 0 2.3155518 0.46954346 3.1513672 1.3053284c0.8357849 0.8358002 1.3053284 1.9693756 1.3053284 3.1513672l0 0c0 2.4613647 -1.9953308 4.4566956 -4.4566956 4.4566956l0 0c-2.4613647 0 -4.4566956 -1.9953308 -4.4566956 -4.4566956z" fill-rule="evenodd"/><path stroke="#000000" stroke-width="1.0" stroke-linejoin="round" stroke-linecap="butt" d="m437.5893 162.18028l0 0c0 -2.4613647 1.9953308 -4.4566956 4.4566956 -4.4566956l0 0c1.1819763 0 2.3155518 0.46954346 3.1513672 1.3053284c0.8357849 0.8358002 1.3053284 1.9693756 1.3053284 3.1513672l0 0c0 2.4613647 -1.9953308 4.4566956 -4.4566956 4.4566956l0 0c-2.4613647 0 -4.4566956 -1.9953308 -4.4566956 -4.4566956z" fill-rule="evenodd"/><path fill="#ffffff" d="m435.75043 341.38297l0 -20.251953l11.24408 0l0 20.251953z" fill-rule="evenodd"/><path stroke="#6aa84f" stroke-width="1.0" stroke-linejoin="round" stroke-linecap="butt" d="m435.75043 341.38297l0 -20.251953l11.24408 0l0 20.251953z" fill-rule="evenodd"/><path fill="#ffffff" d="m435.88525 296.0047l0 -20.251984l11.24408 0l0 20.251984z" fill-rule="evenodd"/><path stroke="#4a86e8" stroke-width="1.0" stroke-linejoin="round" stroke-linecap="butt" d="m435.88525 296.0047l0 -20.251984l11.24408 0l0 20.251984z" fill-rule="evenodd"/><path fill="#ffffff" d="m435.88525 264.0047l0 -20.251984l11.24408 0l0 20.251984z" fill-rule="evenodd"/><path stroke="#4a86e8" stroke-width="1.0" stroke-linejoin="round" stroke-linecap="butt" d="m435.88525 264.0047l0 -20.251984l11.24408 0l0 20.251984z" fill-rule="evenodd"/><path fill="#ffffff" d="m435.75043 223.63016l0 -20.251968l11.24408 0l0 20.251968z" fill-rule="evenodd"/><path stroke="#6aa84f" stroke-width="1.0" stroke-linejoin="round" stroke-linecap="butt" d="m435.75043 223.63016l0 -20.251968l11.24408 0l0 20.251968z" fill-rule="evenodd"/><path fill="#000000" fill-opacity="0.0" d="m442.16534 161.93964l-42.910736 40.89824l0 131.58534l42.538055 40.54303" fill-rule="evenodd"/><path stroke="#000000" stroke-width="1.0" stroke-linejoin="round" stroke-linecap="butt" d="m442.16534 161.93964l-42.910736 40.89824l0 131.58534l42.538055 40.54303" fill-rule="evenodd"/><path fill="#ffffff" d="m406.01575 256.00525l0 20.251984l-11.24408 0l0 -20.251984z" fill-rule="evenodd"/><path stroke="#000000" stroke-width="1.0" stroke-linejoin="round" stroke-linecap="butt" d="m406.01575 256.00525l0 20.251984l-11.24408 0l0 -20.251984z" fill-rule="evenodd"/><path fill="#000000" fill-opacity="0.0" d="m357.02448 239.12196l60.251984 0l0 37.16536l-60.251984 0z" fill-rule="evenodd"/><path fill="#000000" d="m367.18073 262.20197l0 -10.484375l4.640625 0q1.40625 0 2.140625 0.28125q0.734375 0.28125 1.171875 1.0q0.4375 0.703125 0.4375 1.578125q0 1.109375 -0.734375 1.875q-0.71875 0.765625 -2.234375 0.984375q0.5625 0.25 0.84375 0.515625q0.609375 0.5625 1.15625 1.390625l1.8125 2.859375l-1.734375 0l-1.390625 -2.1875q-0.609375 -0.9375 -1.0 -1.4375q-0.390625 -0.5 -0.703125 -0.703125q-0.3125 -0.203125 -0.640625 -0.28125q-0.234375 -0.046875 -0.765625 -0.046875l-1.609375 0l0 4.65625l-1.390625 0zm1.390625 -5.859375l2.984375 0q0.9375 0 1.46875 -0.1875q0.546875 -0.203125 0.828125 -0.640625q0.28125 -0.4375 0.28125 -0.9375q0 -0.75 -0.546875 -1.21875q-0.53125 -0.484375 -1.703125 -0.484375l-3.3125 0l0 3.46875z" fill-rule="nonzero"/><path fill="#000000" d="m380.53064 267.70197l0 -0.640625q-0.46875 0.75 -1.40625 0.75q-0.609375 0 -1.125 -0.328125q-0.5 -0.328125 -0.78125 -0.921875q-0.28125 -0.609375 -0.28125 -1.390625q0 -0.75 0.25 -1.359375q0.265625 -0.625 0.765625 -0.953125q0.5 -0.328125 1.125 -0.328125q0.46875 0 0.8125 0.1875q0.359375 0.1875 0.59375 0.5l0 -2.5l0.84375 0l0 6.984375l-0.796875 0zm-2.703125 -2.53125q0 0.984375 0.40625 1.46875q0.40625 0.46875 0.96875 0.46875q0.5625 0 0.953125 -0.453125q0.390625 -0.46875 0.390625 -1.40625q0 -1.046875 -0.40625 -1.53125q-0.390625 -0.484375 -0.96875 -0.484375q-0.578125 0 -0.96875 0.46875q-0.375 0.46875 -0.375 1.46875z" fill-rule="nonzero"/><path fill="#000000" fill-opacity="0.0" d="m349.90543 267.2966l53.543304 0l0 37.165344l-53.543304 0z" fill-rule="evenodd"/><path fill="#4a86e8" d="m360.03043 290.3766l0 -10.484375l3.625 0q1.21875 0 1.859375 0.140625q0.90625 0.203125 1.546875 0.75q0.828125 0.703125 1.234375 1.796875q0.40625 1.09375 0.40625 2.5q0 1.1875 -0.28125 2.109375q-0.265625 0.921875 -0.703125 1.53125q-0.4375 0.609375 -0.96875 0.953125q-0.515625 0.34375 -1.25 0.53125q-0.71875 0.171875 -1.671875 0.171875l-3.796875 0zm1.390625 -1.234375l2.25 0q1.03125 0 1.625 -0.1875q0.59375 -0.203125 0.9375 -0.546875q0.5 -0.5 0.765625 -1.328125q0.28125 -0.84375 0.28125 -2.03125q0 -1.640625 -0.546875 -2.515625q-0.53125 -0.890625 -1.3125 -1.1875q-0.546875 -0.21875 -1.796875 -0.21875l-2.203125 0l0 8.015625zm8.55304 -2.5625q0 -2.109375 1.171875 -3.125q0.984375 -0.84375 2.390625 -0.84375q1.578125 0 2.5625 1.03125q1.0 1.015625 1.0 2.828125q0 1.46875 -0.4375 2.3125q-0.4375 0.828125 -1.28125 1.296875q-0.84375 0.46875 -1.84375 0.46875q-1.59375 0 -2.578125 -1.015625q-0.984375 -1.03125 -0.984375 -2.953125zm1.328125 0q0 1.453125 0.625 2.1875q0.640625 0.71875 1.609375 0.71875q0.96875 0 1.59375 -0.71875q0.640625 -0.734375 0.640625 -2.234375q0 -1.40625 -0.640625 -2.125q-0.640625 -0.734375 -1.59375 -0.734375q-0.96875 0 -1.609375 0.71875q-0.625 0.71875 -0.625 2.1875zm6.8229675 0q0 -2.109375 1.171875 -3.125q0.984375 -0.84375 2.390625 -0.84375q1.578125 0 2.5625 1.03125q1.0 1.015625 1.0 2.828125q0 1.46875 -0.4375 2.3125q-0.4375 0.828125 -1.28125 1.296875q-0.84375 0.46875 -1.84375 0.46875q-1.59375 0 -2.578125 -1.015625q-0.984375 -1.03125 -0.984375 -2.953125zm1.328125 0q0 1.453125 0.625 2.1875q0.640625 0.71875 1.609375 0.71875q0.96875 0 1.59375 -0.71875q0.640625 -0.734375 0.640625 -2.234375q0 -1.40625 -0.640625 -2.125q-0.640625 -0.734375 -1.59375 -0.734375q-0.96875 0 -1.609375 0.71875q-0.625 0.71875 -0.625 2.1875zm7.291748 3.796875l0 -7.59375l1.15625 0l0 1.140625q0.453125 -0.796875 0.828125 -1.046875q0.375 -0.265625 0.8125 -0.265625q0.65625 0 1.328125 0.40625l-0.4375 1.203125q-0.46875 -0.28125 -0.953125 -0.28125q-0.421875 0 -0.765625 0.25q-0.328125 0.25 -0.46875 0.703125q-0.21875 0.6875 -0.21875 1.5l0 3.984375l-1.28125 0z" fill-rule="nonzero"/><path fill="#000000" fill-opacity="0.0" d="m473.24387 268.63016l-31.496063 0" fill-rule="evenodd"/><path stroke="#000000" stroke-width="1.0" stroke-linejoin="round" stroke-linecap="butt" d="m473.24387 268.63016l-31.496063 0" fill-rule="evenodd"/><path fill="#000000" fill-opacity="0.0" d="m497.38034 278.75287l0 -20.251984" fill-rule="evenodd"/><path stroke="#000000" stroke-width="1.0" stroke-linejoin="round" stroke-linecap="butt" d="m497.38034 278.75287l0 -20.251984" fill-rule="evenodd"/><path fill="#000000" fill-opacity="0.0" d="m502.005 274.81586l-4.75589 3.685028" fill-rule="evenodd"/><path stroke="#000000" stroke-width="1.0" stroke-linejoin="round" stroke-linecap="butt" d="m502.005 274.81586l-4.75589 3.685028" fill-rule="evenodd"/><path fill="#000000" fill-opacity="0.0" d="m502.005 266.81586l-4.75589 3.685028" fill-rule="evenodd"/><path stroke="#000000" stroke-width="1.0" stroke-linejoin="round" stroke-linecap="butt" d="m502.005 266.81586l-4.75589 3.685028" fill-rule="evenodd"/><path fill="#000000" fill-opacity="0.0" d="m502.005 258.81586l-4.75589 3.685028" fill-rule="evenodd"/><path stroke="#000000" stroke-width="1.0" stroke-linejoin="round" stroke-linecap="butt" d="m502.005 258.81586l-4.75589 3.685028" fill-rule="evenodd"/><path fill="#000000" fill-opacity="0.0" d="m481.38034 278.75287l0 -20.251984" fill-rule="evenodd"/><path stroke="#000000" stroke-width="1.0" stroke-linejoin="round" stroke-linecap="butt" d="m481.38034 278.75287l0 -20.251984" fill-rule="evenodd"/><path fill="#000000" fill-opacity="0.0" d="m473.38034 278.75287l0 -20.251984" fill-rule="evenodd"/><path stroke="#000000" stroke-width="1.0" stroke-linejoin="round" stroke-linecap="butt" d="m473.38034 278.75287l0 -20.251984" fill-rule="evenodd"/><path fill="#000000" fill-opacity="0.0" d="m496.77667 268.63016l-15.118103 0" fill-rule="evenodd"/><path stroke="#000000" stroke-width="1.0" stroke-linejoin="round" stroke-linecap="butt" d="m496.77667 268.63016l-15.118103 0" fill-rule="evenodd"/></g></svg>